<?xml version="1.0" encoding="UTF-8"?>
<svg id="Layer_2" data-name="Layer 2" xmlns="http://www.w3.org/2000/svg" viewBox="0 0 724.14 403.67">
  <defs>
    <style>
      .cls-1 {
        fill: #cd001a;
      }
    </style>
  </defs>
  <g id="Layer_1-2" data-name="Layer 1">
    <g>
      <path class="cls-1" d="M0,9.73v372.55c0,9.59,10.31,15.64,18.68,10.97l61.84-34.49c4.75-2.65,10.53-2.63,15.26.04,26.85,14.96,53.7,29.91,80.55,44.87,29.77-18.27,59.53-36.55,89.3-54.82v-201.21l-89.3-53.13-64.65,43.1c-7.01,4.67-6.79,15.04.41,19.42,46.09,27.64,92.18,55.27,138.27,82.91.35.17,5.63,2.85,6.28,8.67.5,4.48-1.95,8.94-6.17,11.11-44.35,26.07-88.7,52.13-133.06,78.2l-7.49,4.42c-10.37,6.12-23.89-1.01-24.04-13.05,0-.09,0-.17,0-.26V45.9L14.86,1.49C8.39-2.55,0,2.1,0,9.73Z"/>
      <g>
        <path d="M393.03,189.47c2.61,2.61,4.64,5.61,6.08,8.98,1.44,3.38,2.11,6.96,2.03,10.74,0,3.96-.86,7.68-2.57,11.14-1.71,3.47-4.05,6.46-7.02,8.98-2.97,2.52-6.48,4.51-10.54,5.94-4.05,1.44-8.42,2.16-13.11,2.16l-60.93.14v-94.57h59.44c4.68,0,9.05.72,13.1,2.16,4.05,1.44,7.56,3.45,10.54,6.01,2.97,2.57,5.31,5.59,7.02,9.05,1.71,3.47,2.57,7.18,2.57,11.15.09,3.33-.45,6.55-1.62,9.66-1.17,3.11-2.84,5.92-5,8.44ZM367.9,218.92c4.14,0,7.61-.92,10.4-2.77,2.79-1.84,4.19-4.16,4.19-6.96,0-6.39-4.86-9.59-14.59-9.59h-34.04v-18.64h32.56c9.73,0,14.59-3.2,14.59-9.59,0-2.79-1.4-5.11-4.19-6.96-2.79-1.84-6.26-2.77-10.4-2.77h-40.93v57.28h42.42Z"/>
        <path d="M480.84,143c4.59,0,8.92.88,12.97,2.63,4.05,1.76,7.57,4.14,10.54,7.16,2.97,3.02,5.34,6.53,7.09,10.54,1.76,4.01,2.63,8.31,2.63,12.9v3.65c0,6.3-1.62,12.11-4.86,17.43-3.24,5.32-7.7,9.41-13.37,12.29l25.26,27.96h-24.99l-21.89-24.32h-27.97v-18.64h34.59c2.07,0,3.99-.38,5.74-1.15,1.76-.76,3.29-1.8,4.59-3.11,1.3-1.3,2.34-2.86,3.11-4.66.76-1.8,1.15-3.74,1.15-5.81v-3.65c0-2.07-.38-3.98-1.15-5.74-.77-1.76-1.8-3.29-3.11-4.59-1.31-1.3-2.84-2.34-4.59-3.11-1.76-.76-3.67-1.15-5.74-1.15h-42.96v75.92h-18.51v-94.57h61.47Z"/>
        <path d="M535.28,237.57v-94.57h77.95v18.51h-59.44v57.55h59.44v18.51h-77.95ZM608.77,181.1v18.51h-46.61v-18.51h46.61Z"/>
        <path d="M632.14,237.57v-94.57h21.62l51.74,66.6v-66.6h18.64v94.57h-20.67l-52.82-65.93v65.93h-18.51Z"/>
        <path d="M318.99,262.61l35.94,73.76,36.07-73.76h20.8l-43.5,88.49c-1.26,2.52-3.06,4.51-5.4,5.95-2.34,1.44-4.91,2.16-7.7,2.16s-5.59-.74-8.11-2.23c-2.52-1.49-4.41-3.53-5.67-6.15l-43.23-88.22h20.8Z"/>
        <path d="M424.23,357.18v-94.57h18.51v94.57h-18.51Z"/>
        <path d="M460.57,304.49c0-5.76,1.1-11.19,3.31-16.28,2.21-5.09,5.2-9.53,8.98-13.31,3.78-3.78,8.19-6.78,13.24-8.99,5.04-2.2,10.45-3.31,16.21-3.31h50.93v18.64h-50.93c-3.24,0-6.26.61-9.05,1.82-2.79,1.22-5.25,2.88-7.36,5-2.12,2.12-3.78,4.57-5,7.36-1.22,2.79-1.82,5.81-1.82,9.05v10.94c0,3.24.61,6.26,1.82,9.05s2.88,5.25,5,7.36c2.12,2.12,4.57,3.78,7.36,5,2.79,1.22,5.81,1.83,9.05,1.83h50.93v18.51h-50.93c-5.77,0-11.17-1.1-16.21-3.31-5.05-2.2-9.46-5.2-13.24-8.98-3.78-3.78-6.78-8.19-8.98-13.24-2.21-5.04-3.31-10.45-3.31-16.21v-10.94Z"/>
        <path d="M569.86,262.61h18.51v94.57h-18.51v-94.57ZM601.21,298.95l37.42-36.34h23.37l-48.36,47.28,48.36,47.29h-23.37l-37.42-36.34c-1.53-1.53-2.68-3.24-3.45-5.13-.77-1.89-1.15-3.83-1.15-5.81s.38-3.92,1.15-5.81c.76-1.89,1.91-3.6,3.45-5.13Z"/>
      </g>
    </g>
  </g>
</svg>